<svg width="45" height="31" viewBox="0 0 45 31" fill="none" xmlns="http://www.w3.org/2000/svg">
<path d="M1.16805 15.1609L5.65849 16.2788C5.87425 16.062 6.10349 15.8588 6.34622 15.6691C6.58895 15.4658 6.86538 15.2897 7.17554 15.1406C7.48569 14.9916 7.84303 14.8696 8.24758 14.7748C8.65212 14.6799 9.13083 14.6325 9.68371 14.6325C10.5063 14.6325 11.221 14.7612 11.8278 15.0187C12.4346 15.2761 12.9403 15.642 13.3448 16.1162C13.7494 16.5905 14.0461 17.1596 14.2348 17.8236C14.4371 18.474 14.5382 19.1921 14.5382 19.978C14.5382 20.7775 14.4573 21.5227 14.2955 22.2138C14.1472 22.9049 13.9112 23.5011 13.5876 24.0024C13.2504 24.5038 12.8122 24.8967 12.2728 25.1813C11.7469 25.4658 11.1064 25.6081 10.3512 25.6081C9.12409 25.6081 8.11273 25.2558 7.31713 24.5512C6.53501 23.8466 6.07652 22.8507 5.94167 21.5634H0.399414C0.439869 22.932 0.743277 24.1515 1.30964 25.2219C1.88949 26.2788 2.63789 27.1731 3.55486 27.9049C4.47183 28.6366 5.5169 29.1921 6.69008 29.5715C7.87675 29.9509 9.10386 30.1406 10.3714 30.1406C12.0436 30.1406 13.4932 29.8764 14.7203 29.3479C15.9474 28.8195 16.9655 28.1013 17.7746 27.1935C18.5837 26.2856 19.1838 25.2355 19.5748 24.0431C19.9659 22.8507 20.1614 21.5905 20.1614 20.2626C20.1614 18.7043 19.9591 17.3086 19.5546 16.0756C19.1501 14.8425 18.5702 13.7992 17.8151 12.9455C17.0464 12.0918 16.1025 11.4414 14.9832 10.9943C13.8775 10.5336 12.6167 10.3032 11.2008 10.3032C10.2029 10.3032 9.31962 10.432 8.55099 10.6894C7.78235 10.9469 7.18902 11.1975 6.77099 11.4414L7.47894 4.93737H19.1905V0.140625H2.84691L1.16805 15.1609Z" fill="url(#paint0_linear_101_15)" fill-opacity="0.95"/>
<path d="M40.981 18.7382V0.140625H35.2769L22.8979 19.7748L23.1204 23.3114H35.3578V29.7341H40.981V23.3114H44.3994V18.7382H40.981ZM28.4199 18.7382L34.8117 8.71786L35.3578 7.74225V18.7382H28.4199Z" fill="url(#paint1_linear_101_15)" fill-opacity="0.95"/>
<defs>
<linearGradient id="paint0_linear_101_15" x1="22.9821" y1="-61.8532" x2="22.3938" y2="30.1406" gradientUnits="userSpaceOnUse">
<stop offset="0.644917"/>
<stop offset="0.803489"/>
<stop offset="1" stop-color="#4F4D4D"/>
</linearGradient>
<linearGradient id="paint1_linear_101_15" x1="22.9821" y1="-61.8532" x2="22.3938" y2="30.1406" gradientUnits="userSpaceOnUse">
<stop offset="0.644917"/>
<stop offset="0.803489"/>
<stop offset="1" stop-color="#4F4D4D"/>
</linearGradient>
</defs>
</svg>
