<svg width="531" height="59" viewBox="0 0 531 59" fill="none" xmlns="http://www.w3.org/2000/svg">
<path d="M1.3999 58.0001V1.20005H25.2399C27.7999 1.20005 30.1466 1.73338 32.2799 2.80005C34.4132 3.86672 36.2799 5.28005 37.8799 7.04005C39.4799 8.80005 40.7066 10.7734 41.5599 12.96C42.4132 15.1467 42.8399 17.3867 42.8399 19.68C42.8399 22.8267 42.1199 25.84 40.6799 28.72C39.2932 31.5467 37.2932 33.8401 34.6799 35.6001C32.1199 37.3601 29.1332 38.2401 25.7199 38.2401H10.3599V58.0001H1.3999ZM10.3599 30.32H25.1599C26.8666 30.32 28.3599 29.8667 29.6399 28.9601C30.9199 28.0001 31.9066 26.7201 32.5999 25.1201C33.3466 23.5201 33.7199 21.7067 33.7199 19.68C33.7199 17.6001 33.2932 15.7601 32.4399 14.16C31.5866 12.5601 30.4666 11.3334 29.0799 10.48C27.7466 9.57338 26.2799 9.12005 24.6799 9.12005H10.3599V30.32Z" fill="black"/>
<path d="M51.2437 58.0001V1.20005H75.9637C78.5237 1.20005 80.8703 1.73338 83.0037 2.80005C85.137 3.86672 86.977 5.28005 88.5237 7.04005C90.1237 8.80005 91.3503 10.7734 92.2037 12.96C93.1103 15.1467 93.5637 17.3867 93.5637 19.68C93.5637 22.1867 93.1103 24.5867 92.2037 26.88C91.297 29.1734 89.9903 31.1467 88.2837 32.8C86.6303 34.4534 84.6837 35.6534 82.4437 36.4001L95.8037 58.0001H85.7237L73.4037 38.2401H60.2037V58.0001H51.2437ZM60.2037 30.32H75.8837C77.537 30.32 79.0037 29.8401 80.2837 28.8801C81.5637 27.9201 82.577 26.64 83.3237 25.04C84.0703 23.3867 84.4437 21.6001 84.4437 19.68C84.4437 17.7067 84.017 15.9467 83.1637 14.4001C82.3103 12.8 81.1903 11.52 79.8036 10.56C78.4703 9.60005 77.0037 9.12005 75.4037 9.12005H60.2037V30.32Z" fill="black"/>
<path d="M127.578 58.4001C123.471 58.4001 119.765 57.6 116.458 56C113.151 54.4 110.298 52.2401 107.898 49.5201C105.498 46.7467 103.631 43.6534 102.298 40.2401C101.018 36.7734 100.378 33.2267 100.378 29.6C100.378 25.8134 101.071 22.2134 102.458 18.8001C103.845 15.3334 105.765 12.2667 108.218 9.60005C110.671 6.88005 113.551 4.74672 116.858 3.20005C120.218 1.60005 123.845 0.800049 127.738 0.800049C131.791 0.800049 135.471 1.62672 138.778 3.28005C142.138 4.93338 144.991 7.14671 147.338 9.92005C149.738 12.6934 151.578 15.7867 152.858 19.2001C154.191 22.6134 154.858 26.1067 154.858 29.6801C154.858 33.4667 154.165 37.0934 152.778 40.5601C151.445 43.9734 149.551 47.0401 147.098 49.7601C144.645 52.4267 141.738 54.5334 138.378 56.0801C135.071 57.6267 131.471 58.4001 127.578 58.4001ZM109.498 29.6C109.498 32.2667 109.925 34.8534 110.778 37.3601C111.631 39.8667 112.831 42.1067 114.378 44.0801C115.978 46.0001 117.898 47.5201 120.138 48.6401C122.378 49.7601 124.885 50.3201 127.658 50.3201C130.538 50.3201 133.098 49.7334 135.338 48.5601C137.578 47.3867 139.445 45.8134 140.938 43.84C142.485 41.8134 143.658 39.5734 144.458 37.1201C145.258 34.6134 145.658 32.1067 145.658 29.6C145.658 26.9334 145.231 24.3734 144.378 21.92C143.578 19.4134 142.378 17.2 140.778 15.28C139.178 13.3067 137.258 11.76 135.018 10.6401C132.831 9.52005 130.378 8.96005 127.658 8.96005C124.778 8.96005 122.218 9.54672 119.978 10.72C117.738 11.8934 115.845 13.4667 114.298 15.4401C112.751 17.4134 111.551 19.6267 110.698 22.08C109.898 24.5334 109.498 27.04 109.498 29.6Z" fill="black"/>
<path d="M162.614 40.0801V32.16H186.534V40.0801H162.614Z" fill="black"/>
<path d="M214.206 1.20005H222.686L244.766 58.0001H235.326L229.326 42.5601H207.406L201.486 58.0001H191.966L214.206 1.20005ZM227.566 35.9201L218.446 11.0401L209.006 35.9201H227.566Z" fill="black"/>
<path d="M246.003 29.2001C246.003 25.7334 246.616 22.3467 247.843 19.0401C249.07 15.6801 250.856 12.6401 253.203 9.92005C255.603 7.14671 258.51 4.96005 261.923 3.36005C265.336 1.70671 269.203 0.880048 273.523 0.880048C278.643 0.880048 283.07 2.05338 286.803 4.40005C290.536 6.69338 293.31 9.65338 295.123 13.2801L288.083 18.0001C287.016 15.7067 285.656 13.8934 284.003 12.5601C282.403 11.2267 280.643 10.2934 278.723 9.76005C276.856 9.22672 275.016 8.96005 273.203 8.96005C270.216 8.96005 267.603 9.57338 265.363 10.8C263.123 11.9734 261.23 13.5467 259.683 15.5201C258.19 17.4934 257.043 19.7067 256.243 22.16C255.496 24.6134 255.123 27.0667 255.123 29.5201C255.123 32.2401 255.576 34.8801 256.483 37.4401C257.39 39.9467 258.643 42.1867 260.243 44.16C261.896 46.08 263.843 47.6001 266.083 48.7201C268.323 49.8401 270.776 50.4001 273.443 50.4001C275.256 50.4001 277.15 50.0801 279.123 49.4401C281.096 48.8001 282.91 47.8134 284.563 46.48C286.27 45.0934 287.603 43.2801 288.563 41.0401L296.003 45.2801C294.83 48.1067 292.99 50.5067 290.483 52.48C288.03 54.4534 285.256 55.9467 282.163 56.9601C279.123 57.9734 276.11 58.4801 273.123 58.4801C269.123 58.4801 265.47 57.6534 262.163 56C258.856 54.2934 256.003 52.0534 253.603 49.2801C251.203 46.4534 249.336 43.3067 248.003 39.84C246.67 36.32 246.003 32.7734 246.003 29.2001Z" fill="black"/>
<path d="M345.971 9.12005H327.091V58.0001H318.051V9.12005H299.091V1.20005H345.971V9.12005Z" fill="black"/>
<path d="M353.587 58.0001V1.20005H362.547V58.0001H353.587Z" fill="black"/>
<path d="M378.984 1.20005L396.104 47.0401L413.144 1.20005H422.664L400.344 58.0001H391.864L369.464 1.20005H378.984Z" fill="black"/>
<path d="M468.563 50.0801V58.0001H429.603V1.20005H467.843V9.12005H438.563V25.2801H463.923V32.7201H438.563V50.0801H468.563Z" fill="black"/>
<path d="M480.126 57.9601C479.353 57.9601 478.753 57.7601 478.326 57.3601C477.926 56.9334 477.726 56.3334 477.726 55.5601V54.8801C477.726 54.1067 477.926 53.5201 478.326 53.1201C478.753 52.6934 479.353 52.48 480.126 52.48H480.646C481.419 52.48 482.006 52.6934 482.406 53.1201C482.833 53.5201 483.046 54.1067 483.046 54.8801V55.5601C483.046 56.3334 482.833 56.9334 482.406 57.3601C482.006 57.7601 481.419 57.9601 480.646 57.9601H480.126Z" fill="black"/>
<path d="M494.887 58.4001C493.367 58.4001 491.954 58.0934 490.647 57.4801C489.34 56.8667 488.274 55.9867 487.447 54.84C487.127 54.36 486.967 53.8934 486.967 53.4401C486.967 52.7734 487.22 52.2134 487.727 51.7601C488.26 51.3067 488.78 51.0801 489.287 51.0801C489.687 51.0801 490.074 51.2001 490.447 51.4401C490.847 51.6801 491.207 51.9601 491.527 52.2801C492.06 52.7601 492.58 53.1067 493.087 53.3201C493.62 53.5067 494.22 53.6001 494.887 53.6001C495.687 53.6001 496.434 53.4001 497.127 53.0001C497.82 52.6001 498.38 52.0667 498.807 51.4001C499.234 50.7334 499.447 50.0134 499.447 49.2401V32.44C499.447 31.7467 499.7 31.1734 500.207 30.7201C500.714 30.2401 501.3 30 501.967 30C502.714 30 503.314 30.2401 503.767 30.7201C504.22 31.1734 504.447 31.7467 504.447 32.44V49.2401C504.447 50.8667 504.02 52.3734 503.167 53.7601C502.314 55.1467 501.167 56.2667 499.727 57.1201C498.287 57.9734 496.674 58.4001 494.887 58.4001Z" fill="black"/>
<path d="M519.437 58.4001C517.571 58.4001 515.891 58.1734 514.397 57.7201C512.904 57.2401 511.477 56.4134 510.117 55.2401C509.771 54.9467 509.504 54.6134 509.317 54.2401C509.131 53.8667 509.037 53.4934 509.037 53.1201C509.037 52.5067 509.251 51.9734 509.677 51.5201C510.131 51.04 510.691 50.8001 511.357 50.8001C511.864 50.8001 512.317 50.9601 512.717 51.2801C513.731 52.1067 514.731 52.7334 515.717 53.16C516.731 53.5867 517.971 53.8001 519.437 53.8001C520.424 53.8001 521.331 53.6534 522.157 53.3601C522.984 53.0401 523.651 52.6267 524.157 52.1201C524.664 51.5867 524.917 50.9867 524.917 50.3201C524.917 49.5201 524.677 48.8401 524.197 48.2801C523.717 47.7201 522.984 47.2534 521.997 46.8801C521.011 46.4801 519.757 46.1734 518.237 45.96C516.797 45.7467 515.531 45.4267 514.437 45C513.344 44.5467 512.424 43.9867 511.677 43.32C510.957 42.6267 510.411 41.8267 510.037 40.9201C509.664 39.9867 509.477 38.9467 509.477 37.8001C509.477 36.0667 509.917 34.5867 510.797 33.3601C511.704 32.1334 512.917 31.2 514.437 30.56C515.957 29.92 517.637 29.6 519.477 29.6C521.211 29.6 522.811 29.8667 524.277 30.4C525.771 30.9067 526.984 31.5601 527.917 32.3601C528.691 32.9734 529.077 33.6801 529.077 34.4801C529.077 35.0667 528.851 35.6001 528.397 36.0801C527.944 36.5601 527.411 36.8 526.797 36.8C526.397 36.8 526.037 36.68 525.717 36.44C525.291 36.0667 524.717 35.7201 523.997 35.4001C523.277 35.0534 522.517 34.7734 521.717 34.5601C520.917 34.3201 520.171 34.2001 519.477 34.2001C518.331 34.2001 517.357 34.3467 516.557 34.64C515.784 34.9334 515.197 35.3334 514.797 35.84C514.397 36.3467 514.197 36.9334 514.197 37.6C514.197 38.4 514.424 39.0667 514.877 39.6001C515.357 40.1067 516.037 40.52 516.917 40.84C517.797 41.1334 518.851 41.4001 520.077 41.6401C521.677 41.9334 523.077 42.28 524.277 42.68C525.504 43.08 526.517 43.6001 527.317 44.2401C528.117 44.8534 528.717 45.6401 529.117 46.6001C529.517 47.5334 529.717 48.6801 529.717 50.0401C529.717 51.7734 529.237 53.2667 528.277 54.5201C527.317 55.7734 526.051 56.7334 524.477 57.4001C522.931 58.0667 521.251 58.4001 519.437 58.4001Z" fill="black"/>
<path d="M153.5 2.00004L142 15.5001L137 10.5L144.088 2.00004L153.5 2.00004Z" fill="black"/>
<path d="M99.9999 57.5001L111.5 44.0001L116.5 49.0001L109.412 57.5001H99.9999Z" fill="black"/>
<path d="M1.3999 58.0001V1.20005H25.2399C27.7999 1.20005 30.1466 1.73338 32.2799 2.80005C34.4132 3.86672 36.2799 5.28005 37.8799 7.04005C39.4799 8.80005 40.7066 10.7734 41.5599 12.96C42.4132 15.1467 42.8399 17.3867 42.8399 19.68C42.8399 22.8267 42.1199 25.84 40.6799 28.72C39.2932 31.5467 37.2932 33.8401 34.6799 35.6001C32.1199 37.3601 29.1332 38.2401 25.7199 38.2401H10.3599V58.0001H1.3999ZM10.3599 30.32H25.1599C26.8666 30.32 28.3599 29.8667 29.6399 28.9601C30.9199 28.0001 31.9066 26.7201 32.5999 25.1201C33.3466 23.5201 33.7199 21.7067 33.7199 19.68C33.7199 17.6001 33.2932 15.7601 32.4399 14.16C31.5866 12.5601 30.4666 11.3334 29.0799 10.48C27.7466 9.57338 26.2799 9.12005 24.6799 9.12005H10.3599V30.32Z" stroke="black"/>
<path d="M51.2437 58.0001V1.20005H75.9637C78.5237 1.20005 80.8703 1.73338 83.0037 2.80005C85.137 3.86672 86.977 5.28005 88.5237 7.04005C90.1237 8.80005 91.3503 10.7734 92.2037 12.96C93.1103 15.1467 93.5637 17.3867 93.5637 19.68C93.5637 22.1867 93.1103 24.5867 92.2037 26.88C91.297 29.1734 89.9903 31.1467 88.2837 32.8C86.6303 34.4534 84.6837 35.6534 82.4437 36.4001L95.8037 58.0001H85.7237L73.4037 38.2401H60.2037V58.0001H51.2437ZM60.2037 30.32H75.8837C77.537 30.32 79.0037 29.8401 80.2837 28.8801C81.5637 27.9201 82.577 26.64 83.3237 25.04C84.0703 23.3867 84.4437 21.6001 84.4437 19.68C84.4437 17.7067 84.017 15.9467 83.1637 14.4001C82.3103 12.8 81.1903 11.52 79.8036 10.56C78.4703 9.60005 77.0037 9.12005 75.4037 9.12005H60.2037V30.32Z" stroke="black"/>
<path d="M127.578 58.4001C123.471 58.4001 119.765 57.6 116.458 56C113.151 54.4 110.298 52.2401 107.898 49.5201C105.498 46.7467 103.631 43.6534 102.298 40.2401C101.018 36.7734 100.378 33.2267 100.378 29.6C100.378 25.8134 101.071 22.2134 102.458 18.8001C103.845 15.3334 105.765 12.2667 108.218 9.60005C110.671 6.88005 113.551 4.74672 116.858 3.20005C120.218 1.60005 123.845 0.800049 127.738 0.800049C131.791 0.800049 135.471 1.62672 138.778 3.28005C142.138 4.93338 144.991 7.14671 147.338 9.92005C149.738 12.6934 151.578 15.7867 152.858 19.2001C154.191 22.6134 154.858 26.1067 154.858 29.6801C154.858 33.4667 154.165 37.0934 152.778 40.5601C151.445 43.9734 149.551 47.0401 147.098 49.7601C144.645 52.4267 141.738 54.5334 138.378 56.0801C135.071 57.6267 131.471 58.4001 127.578 58.4001ZM109.498 29.6C109.498 32.2667 109.925 34.8534 110.778 37.3601C111.631 39.8667 112.831 42.1067 114.378 44.0801C115.978 46.0001 117.898 47.5201 120.138 48.6401C122.378 49.7601 124.885 50.3201 127.658 50.3201C130.538 50.3201 133.098 49.7334 135.338 48.5601C137.578 47.3867 139.445 45.8134 140.938 43.84C142.485 41.8134 143.658 39.5734 144.458 37.1201C145.258 34.6134 145.658 32.1067 145.658 29.6C145.658 26.9334 145.231 24.3734 144.378 21.92C143.578 19.4134 142.378 17.2 140.778 15.28C139.178 13.3067 137.258 11.76 135.018 10.6401C132.831 9.52005 130.378 8.96005 127.658 8.96005C124.778 8.96005 122.218 9.54672 119.978 10.72C117.738 11.8934 115.845 13.4667 114.298 15.4401C112.751 17.4134 111.551 19.6267 110.698 22.08C109.898 24.5334 109.498 27.04 109.498 29.6Z" stroke="black"/>
<path d="M162.614 40.0801V32.16H186.534V40.0801H162.614Z" stroke="black"/>
<path d="M214.206 1.20005H222.686L244.766 58.0001H235.326L229.326 42.5601H207.406L201.486 58.0001H191.966L214.206 1.20005ZM227.566 35.9201L218.446 11.0401L209.006 35.9201H227.566Z" stroke="black"/>
<path d="M246.003 29.2001C246.003 25.7334 246.616 22.3467 247.843 19.0401C249.07 15.6801 250.856 12.6401 253.203 9.92005C255.603 7.14671 258.51 4.96005 261.923 3.36005C265.336 1.70671 269.203 0.880048 273.523 0.880048C278.643 0.880048 283.07 2.05338 286.803 4.40005C290.536 6.69338 293.31 9.65338 295.123 13.2801L288.083 18.0001C287.016 15.7067 285.656 13.8934 284.003 12.5601C282.403 11.2267 280.643 10.2934 278.723 9.76005C276.856 9.22672 275.016 8.96005 273.203 8.96005C270.216 8.96005 267.603 9.57338 265.363 10.8C263.123 11.9734 261.23 13.5467 259.683 15.5201C258.19 17.4934 257.043 19.7067 256.243 22.16C255.496 24.6134 255.123 27.0667 255.123 29.5201C255.123 32.2401 255.576 34.8801 256.483 37.4401C257.39 39.9467 258.643 42.1867 260.243 44.16C261.896 46.08 263.843 47.6001 266.083 48.7201C268.323 49.8401 270.776 50.4001 273.443 50.4001C275.256 50.4001 277.15 50.0801 279.123 49.4401C281.096 48.8001 282.91 47.8134 284.563 46.48C286.27 45.0934 287.603 43.2801 288.563 41.0401L296.003 45.2801C294.83 48.1067 292.99 50.5067 290.483 52.48C288.03 54.4534 285.256 55.9467 282.163 56.9601C279.123 57.9734 276.11 58.4801 273.123 58.4801C269.123 58.4801 265.47 57.6534 262.163 56C258.856 54.2934 256.003 52.0534 253.603 49.2801C251.203 46.4534 249.336 43.3067 248.003 39.84C246.67 36.32 246.003 32.7734 246.003 29.2001Z" stroke="black"/>
<path d="M345.971 9.12005H327.091V58.0001H318.051V9.12005H299.091V1.20005H345.971V9.12005Z" stroke="black"/>
<path d="M353.587 58.0001V1.20005H362.547V58.0001H353.587Z" stroke="black"/>
<path d="M378.984 1.20005L396.104 47.0401L413.144 1.20005H422.664L400.344 58.0001H391.864L369.464 1.20005H378.984Z" stroke="black"/>
<path d="M468.563 50.0801V58.0001H429.603V1.20005H467.843V9.12005H438.563V25.2801H463.923V32.7201H438.563V50.0801H468.563Z" stroke="black"/>
<path d="M480.126 57.9601C479.353 57.9601 478.753 57.7601 478.326 57.3601C477.926 56.9334 477.726 56.3334 477.726 55.5601V54.8801C477.726 54.1067 477.926 53.5201 478.326 53.1201C478.753 52.6934 479.353 52.48 480.126 52.48H480.646C481.419 52.48 482.006 52.6934 482.406 53.1201C482.833 53.5201 483.046 54.1067 483.046 54.8801V55.5601C483.046 56.3334 482.833 56.9334 482.406 57.3601C482.006 57.7601 481.419 57.9601 480.646 57.9601H480.126Z" stroke="black"/>
<path d="M494.887 58.4001C493.367 58.4001 491.954 58.0934 490.647 57.4801C489.34 56.8667 488.274 55.9867 487.447 54.84C487.127 54.36 486.967 53.8934 486.967 53.4401C486.967 52.7734 487.22 52.2134 487.727 51.7601C488.26 51.3067 488.78 51.0801 489.287 51.0801C489.687 51.0801 490.074 51.2001 490.447 51.4401C490.847 51.6801 491.207 51.9601 491.527 52.2801C492.06 52.7601 492.58 53.1067 493.087 53.3201C493.62 53.5067 494.22 53.6001 494.887 53.6001C495.687 53.6001 496.434 53.4001 497.127 53.0001C497.82 52.6001 498.38 52.0667 498.807 51.4001C499.234 50.7334 499.447 50.0134 499.447 49.2401V32.44C499.447 31.7467 499.7 31.1734 500.207 30.7201C500.714 30.2401 501.3 30 501.967 30C502.714 30 503.314 30.2401 503.767 30.7201C504.22 31.1734 504.447 31.7467 504.447 32.44V49.2401C504.447 50.8667 504.02 52.3734 503.167 53.7601C502.314 55.1467 501.167 56.2667 499.727 57.1201C498.287 57.9734 496.674 58.4001 494.887 58.4001Z" stroke="black"/>
<path d="M519.437 58.4001C517.571 58.4001 515.891 58.1734 514.397 57.7201C512.904 57.2401 511.477 56.4134 510.117 55.2401C509.771 54.9467 509.504 54.6134 509.317 54.2401C509.131 53.8667 509.037 53.4934 509.037 53.1201C509.037 52.5067 509.251 51.9734 509.677 51.5201C510.131 51.04 510.691 50.8001 511.357 50.8001C511.864 50.8001 512.317 50.9601 512.717 51.2801C513.731 52.1067 514.731 52.7334 515.717 53.16C516.731 53.5867 517.971 53.8001 519.437 53.8001C520.424 53.8001 521.331 53.6534 522.157 53.3601C522.984 53.0401 523.651 52.6267 524.157 52.1201C524.664 51.5867 524.917 50.9867 524.917 50.3201C524.917 49.5201 524.677 48.8401 524.197 48.2801C523.717 47.7201 522.984 47.2534 521.997 46.8801C521.011 46.4801 519.757 46.1734 518.237 45.96C516.797 45.7467 515.531 45.4267 514.437 45C513.344 44.5467 512.424 43.9867 511.677 43.32C510.957 42.6267 510.411 41.8267 510.037 40.9201C509.664 39.9867 509.477 38.9467 509.477 37.8001C509.477 36.0667 509.917 34.5867 510.797 33.3601C511.704 32.1334 512.917 31.2 514.437 30.56C515.957 29.92 517.637 29.6 519.477 29.6C521.211 29.6 522.811 29.8667 524.277 30.4C525.771 30.9067 526.984 31.5601 527.917 32.3601C528.691 32.9734 529.077 33.6801 529.077 34.4801C529.077 35.0667 528.851 35.6001 528.397 36.0801C527.944 36.5601 527.411 36.8 526.797 36.8C526.397 36.8 526.037 36.68 525.717 36.44C525.291 36.0667 524.717 35.7201 523.997 35.4001C523.277 35.0534 522.517 34.7734 521.717 34.5601C520.917 34.3201 520.171 34.2001 519.477 34.2001C518.331 34.2001 517.357 34.3467 516.557 34.64C515.784 34.9334 515.197 35.3334 514.797 35.84C514.397 36.3467 514.197 36.9334 514.197 37.6C514.197 38.4 514.424 39.0667 514.877 39.6001C515.357 40.1067 516.037 40.52 516.917 40.84C517.797 41.1334 518.851 41.4001 520.077 41.6401C521.677 41.9334 523.077 42.28 524.277 42.68C525.504 43.08 526.517 43.6001 527.317 44.2401C528.117 44.8534 528.717 45.6401 529.117 46.6001C529.517 47.5334 529.717 48.6801 529.717 50.0401C529.717 51.7734 529.237 53.2667 528.277 54.5201C527.317 55.7734 526.051 56.7334 524.477 57.4001C522.931 58.0667 521.251 58.4001 519.437 58.4001Z" stroke="black"/>
<path d="M153.5 2.00004L142 15.5001L137 10.5L144.088 2.00004L153.5 2.00004Z" stroke="black"/>
<path d="M99.9999 57.5001L111.5 44.0001L116.5 49.0001L109.412 57.5001H99.9999Z" stroke="black"/>
</svg>
