<svg width="55" height="36" viewBox="0 0 55 36" fill="none" xmlns="http://www.w3.org/2000/svg">
<path d="M6.59896 5.04934L5.62411 4.8298V3.77204H8.69863V4.78989L8.19246 4.96951C8.00499 5.02273 7.88001 5.13582 7.81752 5.30879L5.53038 12.334H4.38681L6.59896 5.04934ZM5.0617 12.334H3.39321L0.862364 5.30879C0.787376 5.13582 0.668644 5.02273 0.50617 4.96951L0 4.78989V3.77204H4.48054V4.8298L3.5057 5.04934L5.39915 11.2962L5.0617 12.334Z" fill="black"/>
<path d="M8.88712 8.06298C8.88712 6.5994 9.21832 5.48841 9.88071 4.73001C10.5556 3.95831 11.5117 3.57246 12.749 3.57246C13.8363 3.57246 14.6237 3.84522 15.1111 4.39073C15.5986 4.93625 15.8423 5.62812 15.8423 6.46635C15.8423 6.66593 15.8298 6.87216 15.8048 7.08504C15.7923 7.29793 15.7673 7.49751 15.7298 7.68378H10.5744V6.7258H13.5926C13.6051 6.65928 13.6114 6.5994 13.6114 6.54618C13.6114 6.49296 13.6114 6.42643 13.6114 6.3466C13.6114 5.841 13.5301 5.42854 13.3677 5.10921C13.2052 4.78989 12.9427 4.63022 12.5803 4.63022C12.2178 4.63022 11.9304 4.84311 11.7179 5.26888C11.5055 5.68134 11.3992 6.4597 11.3992 7.60395C11.3992 8.34904 11.4555 8.96108 11.5679 9.44007C11.6804 9.90575 11.8741 10.2517 12.1491 10.4779C12.4366 10.7041 12.8178 10.8172 13.2927 10.8172C13.6676 10.8172 14.0301 10.7506 14.38 10.6176C14.7299 10.4845 15.0237 10.2783 15.2611 9.99889L15.786 10.418C15.6111 11.07 15.2299 11.5689 14.6425 11.9148C14.0676 12.2475 13.3677 12.4138 12.5428 12.4138C11.7054 12.4138 11.018 12.2408 10.4806 11.8949C9.9432 11.5356 9.54327 11.03 9.28081 10.3781C9.01835 9.72613 8.88712 8.95443 8.88712 8.06298Z" fill="black"/>
<path d="M19.7354 6.16698C19.9603 5.63477 20.2103 5.17574 20.4852 4.78989C20.7727 4.39073 21.0789 4.08471 21.4038 3.87183C21.7413 3.65894 22.0912 3.5525 22.4537 3.5525C22.6037 3.5525 22.7911 3.57911 23.0161 3.63233C23.2411 3.67225 23.416 3.72547 23.541 3.79199C23.591 4.20446 23.5972 4.7034 23.5598 5.28884C23.5223 5.87427 23.4473 6.43974 23.3348 6.98525H22.2662L22.0225 6.14702C21.9725 5.96075 21.9038 5.841 21.8163 5.78778C21.7413 5.73456 21.6226 5.70795 21.4601 5.70795C21.2601 5.70795 21.0227 5.76782 20.7477 5.88757C20.4727 6.00732 20.2103 6.2202 19.9603 6.52622L19.7354 6.16698ZM20.279 6.12707V10.6176C20.279 10.8571 20.3915 10.9968 20.6165 11.0367L21.76 11.1764V12.2142H16.7546V11.1764L17.4857 11.0367C17.6982 10.9968 17.8044 10.8571 17.8044 10.6176V5.66803C17.8044 5.42854 17.7044 5.28883 17.5045 5.24892L16.6796 5.0693V3.99157C17.117 3.85852 17.5857 3.75873 18.0856 3.69221C18.598 3.62568 19.0667 3.58576 19.4916 3.57246L19.8853 3.89178L20.279 6.12707Z" fill="black"/>
<path d="M24.3152 11.7751C24.2652 11.3893 24.2465 10.9901 24.259 10.5777C24.2715 10.1652 24.3027 9.7727 24.3527 9.40016H25.59L25.8712 10.4779C25.9337 10.744 26.0399 10.9369 26.1899 11.0567C26.2899 11.1232 26.4274 11.1964 26.6023 11.2762C26.7773 11.356 26.9835 11.3959 27.221 11.3959C27.5584 11.3959 27.8146 11.2962 27.9896 11.0966C28.1771 10.897 28.2708 10.6642 28.2708 10.398C28.2708 10.1319 28.1771 9.91241 27.9896 9.73944C27.8021 9.56647 27.5522 9.40016 27.2397 9.24049C26.9273 9.08083 26.5773 8.90121 26.1899 8.70163C25.64 8.39561 25.1901 8.05633 24.8401 7.68378C24.5027 7.31123 24.3339 6.80563 24.3339 6.16698C24.3339 5.40858 24.5964 4.78989 25.1213 4.3109C25.6462 3.81861 26.4586 3.57246 27.5584 3.57246C28.0084 3.57246 28.477 3.61903 28.9645 3.71216C29.4644 3.8053 29.8893 3.92505 30.2393 4.0714C30.2643 4.41734 30.2643 4.78989 30.2393 5.18905C30.2268 5.5882 30.1893 5.9674 30.1268 6.32664H28.9832L28.6833 5.30879C28.6458 5.16243 28.602 5.05599 28.552 4.98947C28.5145 4.90964 28.4458 4.84311 28.3458 4.78989C28.2208 4.71006 28.0896 4.65018 27.9521 4.61027C27.8271 4.57035 27.6959 4.55039 27.5584 4.55039C27.2835 4.55039 27.0585 4.63688 26.8835 4.80985C26.7086 4.96951 26.6211 5.1957 26.6211 5.48841C26.6211 5.74121 26.6961 5.9541 26.8461 6.12707C26.996 6.30003 27.1897 6.45304 27.4272 6.5861C27.6772 6.71915 27.9459 6.8522 28.2333 6.98525C28.6708 7.18483 29.0769 7.40437 29.4519 7.64386C29.8393 7.87005 30.1455 8.15612 30.3705 8.50205C30.608 8.83468 30.7267 9.2671 30.7267 9.79931C30.7267 10.6642 30.4017 11.3161 29.7518 11.7552C29.1019 12.1943 28.2833 12.4138 27.296 12.4138C26.7211 12.4138 26.1774 12.3473 25.665 12.2142C25.1526 12.0812 24.7026 11.9348 24.3152 11.7751Z" fill="black"/>
<path d="M35.1177 10.6176C35.1177 10.8571 35.224 10.9968 35.4364 11.0367L36.1676 11.1764V12.2142H31.5933V11.1764L32.3244 11.0367C32.5369 10.9968 32.6431 10.8571 32.6431 10.6176V5.68799C32.6431 5.4485 32.5431 5.30879 32.3432 5.26888L31.5183 5.08926V4.01153C32.0057 3.86517 32.5494 3.75873 33.1493 3.69221C33.7492 3.62568 34.2929 3.59242 34.7803 3.59242L35.1177 3.91174V10.6176ZM35.099 1.29726C35.099 1.69642 34.974 2.01574 34.7241 2.25524C34.4866 2.49473 34.1679 2.61448 33.768 2.61448C33.3555 2.61448 33.0243 2.49473 32.7744 2.25524C32.5369 2.01574 32.4182 1.69642 32.4182 1.29726C32.4182 0.898104 32.5369 0.585431 32.7744 0.359242C33.0243 0.119747 33.3555 0 33.768 0C34.1679 0 34.4866 0.119747 34.7241 0.359242C34.974 0.585431 35.099 0.898104 35.099 1.29726Z" fill="black"/>
<path d="M42.0732 8.10289C42.0732 7.26466 42.0357 6.59275 41.9607 6.08715C41.8857 5.58155 41.7482 5.22231 41.5483 5.00942C41.3608 4.78324 41.0983 4.67014 40.7609 4.67014C40.3485 4.67014 40.036 4.90298 39.8235 5.36867C39.6236 5.83435 39.5236 6.67258 39.5236 7.88336C39.5236 8.72159 39.5611 9.3935 39.6361 9.8991C39.7236 10.4047 39.861 10.7706 40.0485 10.9968C40.236 11.223 40.4984 11.3361 40.8359 11.3361C41.2483 11.3361 41.5545 11.1032 41.7545 10.6375C41.967 10.1586 42.0732 9.31367 42.0732 8.10289ZM36.8615 8.08294C36.8615 6.9786 37.0365 6.10045 37.3864 5.4485C37.7489 4.78324 38.2363 4.30425 38.8487 4.01153C39.4611 3.71882 40.1485 3.57246 40.9109 3.57246C41.7107 3.57246 42.3919 3.73212 42.9543 4.05145C43.5167 4.35747 43.9479 4.8298 44.2478 5.46846C44.5603 6.10711 44.7165 6.91873 44.7165 7.90332C44.7165 9.02096 44.5415 9.91241 44.1916 10.5777C43.8417 11.2296 43.3605 11.702 42.7481 11.9947C42.1482 12.2741 41.4608 12.4138 40.6859 12.4138C39.8985 12.4138 39.2174 12.2608 38.6425 11.9548C38.0676 11.6354 37.6239 11.1564 37.3114 10.5178C37.0115 9.87914 36.8615 9.06752 36.8615 8.08294Z" fill="black"/>
<path d="M50.7069 12.2142V11.1764L51.1756 11.0367C51.2756 11.0101 51.3506 10.9635 51.4006 10.897C51.4506 10.8305 51.4756 10.7373 51.4756 10.6176V7.00521C51.4756 6.31334 51.3818 5.8277 51.1944 5.54829C51.0069 5.26888 50.7132 5.12917 50.3132 5.12917C50.0508 5.12917 49.7758 5.18905 49.4884 5.30879C49.2134 5.41523 48.951 5.58155 48.701 5.80774L48.7197 5.0693C49.0572 4.5637 49.4634 4.19115 49.9383 3.95166C50.4132 3.69886 50.9506 3.57246 51.5505 3.57246C52.4754 3.57246 53.1003 3.84522 53.4253 4.39073C53.7627 4.93625 53.9314 5.7146 53.9314 6.7258V10.6176C53.9314 10.8571 54.0377 10.9968 54.2501 11.0367L55 11.1764V12.2142H50.7069ZM45.6265 12.2142V11.1764L46.3764 11.0367C46.5763 10.9968 46.6763 10.8571 46.6763 10.6176V5.68799C46.6763 5.4485 46.5763 5.30879 46.3764 5.26888L45.5515 5.08926V4.01153C46.0264 3.87848 46.5263 3.77869 47.0513 3.71216C47.5762 3.64564 48.0698 3.60572 48.5323 3.59242L48.8885 3.91174L49.1509 5.40858V10.6176C49.1509 10.8305 49.2509 10.9702 49.4509 11.0367L49.9008 11.1764V12.2142H45.6265Z" fill="black"/>
<path d="M6.13869 32.8914C6.13869 33.2054 6.27197 33.4147 6.53853 33.5194L8.18493 34.0532V35.6861H0V34.0532L2.49311 33.488C2.63423 33.4461 2.73615 33.3833 2.79887 33.2996C2.87727 33.1949 2.91647 33.0484 2.91647 32.86V21.3359C2.74399 21.3778 2.50095 21.4301 2.18735 21.4929C1.88943 21.5557 1.57583 21.608 1.24655 21.6499C0.932956 21.6918 0.666397 21.7127 0.446878 21.7127L0.235199 20.0171C0.736957 19.8705 1.25439 19.6507 1.78751 19.3576C2.32063 19.0646 2.81455 18.7401 3.26927 18.3842C3.73966 18.0283 4.10814 17.6934 4.3747 17.3794L6.13869 17.7248V32.8914Z" fill="black"/>
<path d="M12.587 33.7706C12.587 34.4196 12.4302 34.9325 12.1166 35.3093C11.803 35.6861 11.3797 35.8745 10.8465 35.8745C10.3291 35.8745 9.91358 35.6861 9.59998 35.3093C9.28638 34.9325 9.12958 34.4196 9.12958 33.7706C9.12958 33.1217 9.28638 32.6088 9.59998 32.232C9.91358 31.8552 10.3291 31.6668 10.8465 31.6668C11.3797 31.6668 11.803 31.8552 12.1166 32.232C12.4302 32.6088 12.587 33.1217 12.587 33.7706Z" fill="black"/>
<path d="M23.3365 36.0001C21.5647 36.0001 20.2789 35.2151 19.4793 33.645C18.6796 32.054 18.2797 29.856 18.2797 27.0508C18.2797 23.9526 18.7423 21.5766 19.6674 19.9229C20.6082 18.2482 21.9802 17.4108 23.7834 17.4108C25.5552 17.4108 26.841 18.2063 27.6407 19.7973C28.4403 21.3882 28.8402 23.5863 28.8402 26.3914C28.8402 29.4687 28.3776 31.8447 27.4525 33.5194C26.5274 35.1732 25.1554 36.0001 23.3365 36.0001ZM23.5247 34.2416C23.9951 34.2416 24.3792 34.0009 24.6772 33.5194C24.9751 33.0379 25.1946 32.2425 25.3357 31.133C25.4768 30.0025 25.5474 28.4744 25.5474 26.5484C25.5474 24.6853 25.4847 23.2199 25.3592 22.1523C25.2338 21.0847 25.0221 20.3311 24.7242 19.8915C24.442 19.4309 24.0656 19.2006 23.5952 19.2006C23.1248 19.2006 22.7407 19.4414 22.4428 19.9229C22.1448 20.3834 21.9253 21.1684 21.7842 22.2779C21.6431 23.3874 21.5725 24.9051 21.5725 26.831C21.5725 28.6942 21.6352 30.17 21.7607 31.2586C21.8861 32.3262 22.09 33.0903 22.3722 33.5508C22.6701 34.0114 23.0543 34.2416 23.5247 34.2416ZM21.9253 33.5194L20.8434 32.6402L25.2416 19.3576L26.3 20.2369L21.9253 33.5194Z" fill="black"/>
<path d="M33.7935 33.7706C33.7935 34.4196 33.6367 34.9325 33.3231 35.3093C33.0095 35.6861 32.5861 35.8745 32.053 35.8745C31.5356 35.8745 31.1201 35.6861 30.8065 35.3093C30.4929 34.9325 30.3361 34.4196 30.3361 33.7706C30.3361 33.1217 30.4929 32.6088 30.8065 32.232C31.1201 31.8552 31.5356 31.6668 32.053 31.6668C32.5861 31.6668 33.0095 31.8552 33.3231 32.232C33.6367 32.6088 33.7935 33.1217 33.7935 33.7706Z" fill="black"/>
<path d="M44.543 36.0001C42.7712 36.0001 41.4854 35.2151 40.6858 33.645C39.8861 32.054 39.4862 29.856 39.4862 27.0508C39.4862 23.9526 39.9488 21.5766 40.8739 19.9229C41.8147 18.2482 43.1867 17.4108 44.9899 17.4108C46.7617 17.4108 48.0475 18.2063 48.8472 19.7973C49.6468 21.3882 50.0467 23.5863 50.0467 26.3914C50.0467 29.4687 49.5841 31.8447 48.659 33.5194C47.7339 35.1732 46.3619 36.0001 44.543 36.0001ZM44.7312 34.2416C45.2016 34.2416 45.5857 34.0009 45.8837 33.5194C46.1816 33.0379 46.4011 32.2425 46.5422 31.133C46.6833 30.0025 46.7539 28.4744 46.7539 26.5484C46.7539 24.6853 46.6912 23.2199 46.5657 22.1523C46.4403 21.0847 46.2286 20.3311 45.9307 19.8915C45.6485 19.4309 45.2721 19.2006 44.8017 19.2006C44.3313 19.2006 43.9472 19.4414 43.6493 19.9229C43.3513 20.3834 43.1318 21.1684 42.9907 22.2779C42.8496 23.3874 42.779 24.9051 42.779 26.831C42.779 28.6942 42.8417 30.17 42.9672 31.2586C43.0926 32.3262 43.2965 33.0903 43.5787 33.5508C43.8766 34.0114 44.2608 34.2416 44.7312 34.2416ZM43.1318 33.5194L42.0499 32.6402L46.4481 19.3576L47.5065 20.2369L43.1318 33.5194Z" fill="black"/>
<path d="M55 33.7706C55 34.4196 54.8432 34.9325 54.5296 35.3093C54.216 35.6861 53.7926 35.8745 53.2595 35.8745C52.7421 35.8745 52.3266 35.6861 52.013 35.3093C51.6994 34.9325 51.5426 34.4196 51.5426 33.7706C51.5426 33.1217 51.6994 32.6088 52.013 32.232C52.3266 31.8552 52.7421 31.6668 53.2595 31.6668C53.7926 31.6668 54.216 31.8552 54.5296 32.232C54.8432 32.6088 55 33.1217 55 33.7706Z" fill="black"/>
</svg>
